<svg xmlns="http://www.w3.org/2000/svg" width="1600" height="420" viewBox="0 0 1600 420">
  <defs>
    <linearGradient id="g1" x1="0" y1="0" x2="1" y2="1">
      <stop offset="0%" stop-color="#0a0f1f" />
      <stop offset="50%" stop-color="#0d2038" />
      <stop offset="100%" stop-color="#001014" />
    </linearGradient>
    <pattern id="grid" width="16" height="16" patternUnits="userSpaceOnUse">
      <rect width="16" height="16" fill="transparent" />
      <rect width="16" height="1" y="15" fill="#0d2136" opacity="0.7" />
      <rect height="16" width="1" x="15" fill="#0d2136" opacity="0.7" />
    </pattern>
    <linearGradient id="titleGrad" x1="0" y1="0" x2="1" y2="0">
      <stop offset="0%" stop-color="#00e6e6" />
      <stop offset="100%" stop-color="#6cf0ff" />
    </linearGradient>
    <filter id="shadow" x="-50%" y="-50%" width="200%" height="200%">
      <feOffset dx="0" dy="4" />
      <feGaussianBlur stdDeviation="4" />
      <feColorMatrix type="matrix" values="0 0 0 0 0   0 0 0 0 0.8  0 0 0 0 0.9  0 0 0 0.6 0"/>
      <feBlend in2="SourceGraphic" mode="normal" />
    </filter>
    <filter id="glow" x="-100%" y="-100%" width="300%" height="300%">
      <feGaussianBlur stdDeviation="8" result="coloredBlur"/>
      <feMerge>
        <feMergeNode in="coloredBlur"/>
        <feMergeNode in="SourceGraphic"/>
      </feMerge>
    </filter>
    <pattern id="scan" width="4" height="4" patternUnits="userSpaceOnUse">
      <rect width="4" height="2" fill="#000" opacity="0.08" />
      <rect y="2" width="4" height="2" fill="transparent" />
    </pattern>
    <symbol id="pokeball" viewBox="0 0 100 100">
      <circle cx="50" cy="50" r="48" fill="#fff" stroke="#111" stroke-width="6"/>
      <path d="M4 50h92" stroke="#111" stroke-width="10"/>
      <path d="M4 50A46 46 0 0 1 96 50" fill="#e03131"/>
      <circle cx="50" cy="50" r="18" fill="#fff" stroke="#111" stroke-width="6"/>
      <circle cx="50" cy="50" r="8" fill="#c9d1d9" stroke="#111" stroke-width="4"/>
    </symbol>
    <symbol id="star4" viewBox="0 0 20 20">
      <polygon points="10,2 12,8 18,8 13,12 15,18 10,14 5,18 7,12 2,8 8,8" fill="#fbbf24" opacity="0.8"/>
    </symbol>
    <symbol id="star6" viewBox="0 0 24 24">
      <path d="M12 2 L14 10 L22 10 L16 15 L18 23 L12 18 L6 23 L8 15 L2 10 L10 10 Z" fill="#a78bfa" opacity="0.6"/>
    </symbol>
    <radialGradient id="anemo-swirl" cx="50%" cy="50%" r="50%">
      <stop offset="0%" stop-color="#6cf0ff" stop-opacity="0.3"/>
      <stop offset="50%" stop-color="#00e6e6" stop-opacity="0.15"/>
      <stop offset="100%" stop-color="#0d2038" stop-opacity="0"/>
    </radialGradient>
  </defs>

  <rect width="1600" height="420" fill="url(#g1)"/>
  <rect width="1600" height="420" fill="url(#grid)"/>

  <!-- Genshin-style Anemo swirl background -->
  <ellipse cx="800" cy="200" rx="600" ry="180" fill="url(#anemo-swirl)" filter="url(#glow)"/>

  <!-- Floating star particles (Genshin wish vibes) -->
  <use href="#star4" x="200" y="60" width="20" height="20">
    <animate attributeName="opacity" values="0.3;0.9;0.3" dur="3s" repeatCount="indefinite"/>
  </use>
  <use href="#star6" x="1350" y="90" width="24" height="24">
    <animate attributeName="opacity" values="0.4;1;0.4" dur="2.5s" repeatCount="indefinite"/>
  </use>
  <use href="#star4" x="300" y="320" width="20" height="20">
    <animate attributeName="opacity" values="0.5;0.8;0.5" dur="4s" repeatCount="indefinite"/>
  </use>
  <use href="#star6" x="1250" y="340" width="24" height="24">
    <animate attributeName="opacity" values="0.3;0.9;0.3" dur="3.5s" repeatCount="indefinite"/>
  </use>
  <use href="#star4" x="150" y="200" width="16" height="16">
    <animate attributeName="opacity" values="0.6;1;0.6" dur="2s" repeatCount="indefinite"/>
  </use>
  <use href="#star6" x="1420" y="210" width="20" height="20">
    <animate attributeName="opacity" values="0.4;0.85;0.4" dur="3s" repeatCount="indefinite"/>
  </use>

  <!-- Constellation pattern (subtle) -->
  <g opacity="0.4" stroke="#6cf0ff" stroke-width="1.5" fill="none">
    <line x1="250" y1="80" x2="320" y2="100"/>
    <line x1="320" y1="100" x2="350" y2="150"/>
    <circle cx="250" cy="80" r="4" fill="#6cf0ff"/>
    <circle cx="320" cy="100" r="5" fill="#a78bfa"/>
    <circle cx="350" cy="150" r="4" fill="#fbbf24"/>
    
    <line x1="1280" y1="110" x2="1340" y2="90"/>
    <line x1="1340" y1="90" x2="1380" y2="140"/>
    <circle cx="1280" cy="110" r="4" fill="#fbbf24"/>
    <circle cx="1340" cy="90" r="5" fill="#6cf0ff"/>
    <circle cx="1380" cy="140" r="4" fill="#a78bfa"/>
  </g>

  <!-- Decorative pokéballs with glow -->
  <g filter="url(#glow)">
    <use href="#pokeball" x="80" y="70" width="120" height="120"/>
    <use href="#pokeball" x="1400" y="70" width="120" height="120"/>
  </g>

  <!-- Title with enhanced glow -->
  <g filter="url(#shadow)">
    <rect x="140" y="120" width="1320" height="160" fill="#06121b" stroke="#00e6e6" stroke-width="8"/>
    <text x="800" y="195" text-anchor="middle" font-size="48" font-family="'Press Start 2P', 'VT323', monospace" fill="url(#titleGrad)" letter-spacing="2" filter="url(#glow)">WELCOME TO THE LAB</text>
    <text x="800" y="255" text-anchor="middle" font-size="28" font-family="'Press Start 2P', 'VT323', monospace" fill="#9ae6ff" opacity="0.95">CATCHING BUGS • EVOLVING IDEAS • SHIPPING LEGENDARIES</text>
  </g>

  <!-- Border and scanlines -->
  <rect x="8" y="8" width="1584" height="404" fill="transparent" stroke="#0cf" stroke-width="8"/>
  <rect width="1600" height="420" fill="url(#scan)"/>

</svg>


