<svg xmlns="http://www.w3.org/2000/svg" width="1600" height="420" viewBox="0 0 1600 420" shape-rendering="crispEdges">
  <defs>
    <linearGradient id="g1" x1="0" y1="0" x2="1" y2="1">
      <stop offset="0%" stop-color="#0a0f1f" />
      <stop offset="50%" stop-color="#0d2038" />
      <stop offset="100%" stop-color="#001014" />
    </linearGradient>
    <pattern id="grid" width="16" height="16" patternUnits="userSpaceOnUse">
      <rect width="16" height="16" fill="transparent" />
      <rect width="16" height="1" y="15" fill="#0d2136" opacity="0.7" />
      <rect height="16" width="1" x="15" fill="#0d2136" opacity="0.7" />
    </pattern>
    <linearGradient id="titleGrad" x1="0" y1="0" x2="1" y2="0">
      <stop offset="0%" stop-color="#00e6e6" />
      <stop offset="100%" stop-color="#6cf0ff" />
    </linearGradient>
    <filter id="shadow" x="-50%" y="-50%" width="200%" height="200%">
      <feOffset dx="0" dy="4" />
      <feGaussianBlur stdDeviation="4" />
      <feColorMatrix type="matrix" values="0 0 0 0 0   0 0 0 0 0.8  0 0 0 0 0.9  0 0 0 0.6 0"/>
      <feBlend in2="SourceGraphic" mode="normal" />
    </filter>
    <pattern id="scan" width="4" height="4" patternUnits="userSpaceOnUse">
      <rect width="4" height="2" fill="#000" opacity="0.08" />
      <rect y="2" width="4" height="2" fill="transparent" />
    </pattern>
    <symbol id="pokeball" viewBox="0 0 100 100">
      <circle cx="50" cy="50" r="48" fill="#fff" stroke="#111" stroke-width="6"/>
      <path d="M4 50h92" stroke="#111" stroke-width="10"/>
      <path d="M4 50A46 46 0 0 1 96 50" fill="#e03131"/>
      <circle cx="50" cy="50" r="18" fill="#fff" stroke="#111" stroke-width="6"/>
      <circle cx="50" cy="50" r="8" fill="#c9d1d9" stroke="#111" stroke-width="4"/>
    </symbol>
  </defs>

  <rect width="1600" height="420" fill="url(#g1)"/>
  <rect width="1600" height="420" fill="url(#grid)"/>

  <!-- Decorative pokéballs -->
  <use href="#pokeball" x="80" y="70" width="120" height="120"/>
  <use href="#pokeball" x="1400" y="70" width="120" height="120"/>

  <!-- Title -->
  <g filter="url(#shadow)">
    <rect x="140" y="120" width="1320" height="160" fill="#06121b" stroke="#00e6e6" stroke-width="8"/>
    <text x="800" y="195" text-anchor="middle" font-size="48" font-family="'Press Start 2P', 'VT323', monospace" fill="url(#titleGrad)" letter-spacing="2">WELCOME TO THE LAB</text>
    <text x="800" y="255" text-anchor="middle" font-size="28" font-family="'Press Start 2P', 'VT323', monospace" fill="#9ae6ff" opacity="0.95">CATCHING BUGS • EVOLVING IDEAS • SHIPPING LEGENDARIES</text>
  </g>

  <!-- Border and scanlines -->
  <rect x="8" y="8" width="1584" height="404" fill="transparent" stroke="#0cf" stroke-width="8"/>
  <rect width="1600" height="420" fill="url(#scan)"/>

</svg>


